<?xml version="1.0" standalone="no"?>
<!DOCTYPE svg PUBLIC "-//W3C//DTD SVG 20010904//EN"
 "http://www.w3.org/TR/2001/REC-SVG-20010904/DTD/svg10.dtd">
<svg version="1.0" xmlns="http://www.w3.org/2000/svg"
 width="364.000000pt" height="86.000000pt" viewBox="0 0 364.000000 86.000000"
 preserveAspectRatio="xMidYMid meet">

<g transform="translate(0.000000,86.000000) scale(0.100000,-0.100000)"
fill="#000000" stroke="none">
<path d="M1384 586 c-10 -26 4 -48 28 -44 17 2 23 10 23 28 0 18 -6 26 -23 28
-13 2 -25 -3 -28 -12z"/>
<path d="M1085 568 c-3 -8 -4 -75 -3 -149 l3 -134 62 -3 c85 -4 148 23 168 72
31 74 12 166 -41 201 -38 25 -181 35 -189 13z m140 -44 c40 -16 57 -101 30
-153 -16 -33 -33 -41 -81 -41 l-34 0 0 100 0 100 34 0 c19 0 42 -3 51 -6z"/>
<path d="M1785 511 c-40 -17 -59 -50 -62 -109 -2 -34 1 -67 9 -82 18 -34 76
-54 133 -46 38 6 45 11 45 30 0 22 -3 23 -50 18 -54 -5 -80 8 -80 39 0 15 10
19 68 21 l67 3 3 36 c6 66 -70 117 -133 90z m76 -68 c8 -22 6 -23 -36 -23 -30
0 -45 4 -45 13 0 41 67 48 81 10z"/>
<path d="M2041 501 c-16 -16 -21 -17 -25 -5 -3 8 -15 14 -26 14 -19 0 -20 -6
-20 -116 l0 -115 28 3 c26 3 27 5 32 78 6 87 12 100 46 100 22 0 25 4 22 27
-4 35 -30 41 -57 14z"/>
<path d="M2180 513 c-29 -11 -50 -36 -50 -60 0 -39 16 -59 60 -77 29 -12 40
-21 38 -34 -4 -21 -49 -28 -78 -12 -20 11 -21 9 -18 -16 2 -22 10 -30 35 -37
62 -18 113 12 113 66 0 42 -7 50 -57 76 -24 12 -43 26 -43 32 0 17 32 23 61
12 27 -10 29 -9 29 13 0 35 -45 53 -90 37z"/>
<path d="M2385 511 c-57 -24 -84 -124 -51 -189 30 -57 129 -67 176 -17 28 30
38 110 20 155 -21 50 -89 74 -145 51z m85 -60 c5 -11 10 -36 10 -56 0 -52 -15
-75 -50 -75 -35 0 -50 23 -50 75 0 52 15 75 50 75 19 0 33 -7 40 -19z"/>
<path d="M2630 513 c-29 -11 -50 -36 -50 -60 0 -39 16 -59 60 -77 29 -12 40
-21 38 -34 -4 -21 -49 -28 -78 -12 -20 11 -21 9 -18 -17 2 -23 10 -30 40 -37
49 -12 93 6 107 45 15 42 -2 72 -55 97 -24 12 -44 26 -44 32 0 18 31 24 61 13
27 -10 29 -9 29 13 0 35 -45 53 -90 37z"/>
<path d="M1385 497 c-3 -7 -4 -58 -3 -113 3 -98 3 -99 28 -99 l25 0 0 110 c0
107 -1 110 -23 113 -12 2 -24 -3 -27 -11z"/>
<path d="M1480 498 c0 -7 15 -58 33 -113 l32 -100 39 0 39 0 34 100 c18 54 33
105 33 112 0 7 -11 13 -24 13 -22 0 -28 -9 -53 -86 l-28 -86 -25 83 c-23 76
-28 84 -53 87 -17 2 -27 -1 -27 -10z"/>
</g>
</svg>
