<?xml version="1.0" standalone="no"?>
<!DOCTYPE svg PUBLIC "-//W3C//DTD SVG 20010904//EN"
 "http://www.w3.org/TR/2001/REC-SVG-20010904/DTD/svg10.dtd">
<svg version="1.0" xmlns="http://www.w3.org/2000/svg"
 width="392.000000pt" height="86.000000pt" viewBox="0 0 392.000000 86.000000"
 preserveAspectRatio="xMidYMid meet">

<g transform="translate(0.000000,86.000000) scale(0.100000,-0.100000)"
fill="#000000" stroke="none">
<path d="M1470 588 c-25 -41 -25 -48 -1 -48 16 0 71 58 71 74 0 3 -11 6 -25 6
-18 0 -31 -10 -45 -32z"/>
<path d="M1777 604 c-4 -4 -7 -31 -7 -61 l0 -53 -25 16 c-35 23 -81 10 -106
-29 -16 -25 -19 -45 -16 -96 3 -55 7 -67 31 -87 32 -28 62 -30 96 -7 17 12 25
13 28 5 2 -7 15 -12 28 -12 l24 0 -2 163 c-3 154 -4 162 -23 165 -12 2 -24 0
-28 -4z m-25 -151 c23 -21 24 -89 1 -115 -36 -40 -73 -12 -73 57 0 68 32 94
72 58z"/>
<path d="M2155 598 c-3 -8 -4 -81 -3 -163 l3 -150 25 0 25 0 0 160 c0 158 0
160 -23 163 -12 2 -24 -3 -27 -10z"/>
<path d="M955 558 c-3 -13 -4 -79 -3 -148 l3 -125 27 -3 27 -3 3 123 3 123 39
-110 c43 -122 50 -135 77 -135 22 0 35 25 80 150 l34 95 3 -123 3 -123 27 3
27 3 0 145 0 145 -41 3 c-25 2 -45 -2 -51 -10 -6 -7 -26 -56 -46 -108 -40
-108 -31 -112 -84 35 -14 39 -31 73 -37 77 -6 4 -28 8 -48 8 -31 0 -39 -4 -43
-22z"/>
<path d="M1425 511 c-57 -24 -84 -124 -51 -189 30 -57 129 -67 176 -17 28 30
38 110 20 155 -21 50 -89 74 -145 51z m85 -60 c5 -11 10 -36 10 -56 0 -52 -15
-75 -50 -75 -35 0 -50 23 -50 75 0 52 15 75 50 75 19 0 33 -7 40 -19z"/>
<path d="M2325 511 c-57 -24 -84 -124 -51 -189 30 -57 129 -67 176 -17 28 30
38 110 20 155 -21 50 -89 74 -145 51z m85 -60 c5 -11 10 -36 10 -56 0 -52 -15
-75 -50 -75 -35 0 -50 23 -50 75 0 52 15 75 50 75 19 0 33 -7 40 -19z"/>
<path d="M1890 415 c0 -89 2 -98 25 -120 30 -30 64 -32 99 -4 21 17 26 18 26
5 0 -10 9 -16 25 -16 l26 0 -3 113 -3 112 -25 0 c-24 0 -25 -2 -28 -75 -3 -81
-20 -113 -56 -108 -19 3 -21 12 -26 93 -5 89 -5 90 -32 93 l-28 3 0 -96z"/>
</g>
</svg>
